<svg xmlns="http://www.w3.org/2000/svg" version="1.0" width="512.000000pt" height="512.000000pt" viewBox="0 0 512.000000 512.000000" preserveAspectRatio="xMidYMid meet">

<g transform="translate(0.000000,512.000000) scale(0.100000,-0.100000)" fill="#475569" stroke="none">
<path d="M1961 4623 c-59 -21 -124 -87 -144 -148 -15 -42 -17 -100 -17 -417 l0 -368 817 0 817 0 28 -27 28 -27 0 -151 0 -151 -28 -27 -28 -27 -804 -2 -805 -3 46 -46 c83 -84 25 -80 1040 -77 l894 3 41 22 c53 28 107 91 122 142 17 54 17 1098 0 1152 -15 51 -69 114 -122 142 l-41 22 -900 2 c-795 1 -905 0 -944 -14z" fill="#475569"/>
<path d="M1070 3485 l0 -105 1160 0 1160 0 0 105 0 105 -1160 0 -1160 0 0 -105z" fill="#475569"/>
<path d="M1150 2779 c0 -346 3 -507 11 -522 16 -31 309 -326 341 -343 19 -10 62 -14 148 -14 l120 0 0 60 0 60 -108 0 -107 0 -143 143 -142 142 0 488 0 487 -60 0 -60 0 0 -501z" fill="#475569"/>
<path d="M2220 2830 l0 -221 113 3 112 3 3 218 2 217 -115 0 -115 0 0 -220z" fill="#475569"/>
<path d="M3340 2830 l0 -221 113 3 112 3 3 218 2 217 -115 0 -115 0 0 -220z" fill="#475569"/>
<path d="M1885 2486 c-106 -49 -165 -150 -165 -283 l0 -63 1170 0 1170 0 0 71 c0 40 -5 89 -11 109 -18 61 -78 131 -138 162 l-53 28 -962 0 -961 0 -50 -24z" fill="#475569"/>
<path d="M1870 1925 l0 -115 1020 0 1020 0 0 115 0 115 -1020 0 -1020 0 0 -115z" fill="#475569"/>
<path d="M2050 1085 l0 -625 115 0 115 0 0 625 0 625 -115 0 -115 0 0 -625z" fill="#475569"/>
<path d="M3500 1085 l0 -625 115 0 115 0 0 625 0 625 -115 0 -115 0 0 -625z" fill="#475569"/>
<path d="M2380 1100 l0 -80 510 0 510 0 0 80 0 80 -510 0 -510 0 0 -80z" fill="#475569"/>
</g>
</svg>